<?xml version="1.0" encoding="UTF-8"?><svg id="a" xmlns="http://www.w3.org/2000/svg" viewBox="0 0 125.09 109.77"><defs><style>.b{fill:#89ad3d;}.c{fill:#ed8425;}.d{fill:#ab322f;}</style></defs><path class="d" d="M34.12,109.5c3.8-1.9,7.33-3.8,10.86-5.7,16.83-9.5,32.84-20.35,46.41-34.46,6.78-7.06,12.48-14.93,14.92-24.69,2.71-10.31,.54-19.81-7.06-27.68-4.88-4.88-11.13-6.51-18.18-5.97-.81,0-1.36,.27-2.17,.27,0,0-.27-.27-.54-.27C83.78,5.02,90.02,.95,98.16,.13c11.13-1.09,19.81,4.61,23.88,14.93,5.7,14.11,2.99,27.41-4.61,39.89-7.33,12.48-17.64,21.98-29.58,29.85-16.55,10.86-34.47,18.45-52.92,24.97-.27-.27-.54-.27-.81-.27Z"/><path class="b" d="M18.79,100.62c3.55-2.18,7.37-4.08,10.65-5.99,11.2-6.81,21.85-14.43,30.32-24.51,4.37-5.45,7.92-11.44,8.74-18.52,1.09-10.89-6.55-22.05-19.12-20.15-.27,0-.55,0-1.09-.27,4.92-5.17,10.38-8.44,17.48-7.9,6.28,.54,10.38,4.36,12.84,10.07,4.64,10.89,2.46,20.97-3.82,30.77-6.28,10.07-15.29,17.43-25.4,23.42-9.01,5.17-18.57,9.53-28.13,13.07-1.09,0-1.64,.54-2.46,0Z"/><path class="c" d="M39.91,47.82c-1.95-3.06-4.75-5.49-8.87-5.76-4.12-.27-7.69,1.35-10.99,4.86,2.47,0,4.4,0,6.32,.81,5.49,2.16,8.24,9.45,6.04,15.66-2.2,5.67-6.32,9.99-10.72,14.04-3.57,3.24-20.88,12.96-21.7,14.04,1.37-.27,19.23-8.1,19.23-8.1,7.55-3.6,12.91-7.83,17.31-14.31,4.67-6.48,7.22-13.68,3.37-21.24Z"/></svg>